<svg width="225" height="174" viewBox="0 0 225 174" fill="none" xmlns="http://www.w3.org/2000/svg">
<path d="M161.936 41.6028L167.06 19.8152C167.078 18.8535 167.736 17.5004 168.582 17.1147C169.005 16.9217 169.47 16.8659 169.922 16.9806L182.121 20.0852C182.871 20.2508 183.45 20.8614 183.607 21.6521L184.261 24.9474L200.219 29.024C202.388 29.3835 203.287 31.3905 202.739 32.8935L197.876 51.2702C197.101 53.3924 194.78 54.548 192.929 54.0768L164.723 46.9007C162.786 46.4075 161.584 44.2848 161.936 41.6028Z" fill="#E2E8F0"/>
<path d="M161.587 41.1709L166.07 22.9468C166.599 21.5509 167.821 20.7278 168.94 21.0127L200.927 29.1505C202.28 29.4947 202.94 31.297 202.335 33.0007L198.294 49.8851C197.226 54.0832 194.674 54.769 192.762 54.2825L164.733 47.1514C161.852 46.4183 160.524 44.7452 161.587 41.1709Z" fill="#F1F5F9"/>
<path d="M182.861 43.0622C182.355 43.0622 181.839 42.9875 181.33 42.8314C178.574 41.9849 177.021 39.0545 177.868 36.2987C178.714 33.5434 181.644 31.99 184.4 32.836C185.735 33.2459 186.83 34.1513 187.484 35.3852C188.139 36.6191 188.273 38.0339 187.863 39.3686C187.172 41.6146 185.097 43.0622 182.861 43.0622ZM182.868 33.0556C180.824 33.0556 178.928 34.3781 178.297 36.4315C177.524 38.9497 178.944 41.6281 181.462 42.4016C183.981 43.1761 186.659 41.7554 187.432 39.2368C187.807 38.0168 187.684 36.724 187.086 35.5967C186.489 34.469 185.488 33.6415 184.268 33.2671C183.802 33.1235 183.331 33.0556 182.868 33.0556Z" fill="#E2E8F0"/>
<path d="M181.685 37.4722L182.347 35.3176L183.882 36.9682L185.417 38.6184L183.22 39.1228L181.023 39.6268L181.685 37.4722Z" fill="#E2E8F0"/>
<path d="M172.256 151.74L155.257 143.527C154.082 142.96 153.59 141.547 154.158 140.373L165.525 116.845C166.092 115.67 167.505 115.178 168.68 115.745L179.46 120.954L183.65 133.587L175.41 150.641C174.843 151.816 173.431 152.308 172.256 151.74Z" fill="#F8FAFC"/>
<path d="M173.452 138.365C173.457 138.353 173.596 138.429 173.882 138.499C174.165 138.56 174.617 138.606 175.141 138.411C175.4 138.314 175.67 138.153 175.907 137.915C176.027 137.799 176.132 137.657 176.228 137.503C176.317 137.346 176.398 137.169 176.484 136.989C176.83 136.264 177.222 135.441 177.654 134.532C177.872 134.078 178.1 133.601 178.337 133.105C178.456 132.857 178.577 132.604 178.701 132.346C178.826 132.085 178.951 131.833 179.015 131.553C179.151 130.995 179.07 130.368 178.775 129.835C178.628 129.568 178.428 129.326 178.185 129.129C177.945 128.928 177.653 128.797 177.349 128.651C174.948 127.498 172.311 126.23 169.542 124.9C168.849 124.642 168.048 124.742 167.452 125.147C167.151 125.343 166.902 125.611 166.728 125.919C166.558 126.231 166.405 126.575 166.245 126.897C165.612 128.202 165.001 129.461 164.42 130.661C164.281 130.959 164.114 131.26 164.006 131.545C163.901 131.839 163.862 132.151 163.888 132.453C163.936 133.06 164.244 133.618 164.69 133.974C164.91 134.157 165.169 134.271 165.429 134.399C165.686 134.524 165.938 134.647 166.185 134.768C166.679 135.009 167.154 135.241 167.607 135.462C169.407 136.346 170.868 137.064 171.893 137.568C172.387 137.815 172.776 138.01 173.053 138.149C173.177 138.213 173.276 138.265 173.353 138.305C173.42 138.342 173.453 138.362 173.452 138.365C173.451 138.368 173.414 138.354 173.344 138.324C173.264 138.288 173.163 138.243 173.036 138.186C172.754 138.055 172.36 137.871 171.858 137.638C170.827 137.148 169.357 136.449 167.545 135.589C167.09 135.372 166.614 135.144 166.118 134.906C165.869 134.788 165.617 134.666 165.359 134.543C165.106 134.42 164.825 134.299 164.586 134.103C164.103 133.722 163.767 133.123 163.712 132.468C163.683 132.142 163.723 131.804 163.835 131.485C163.958 131.163 164.113 130.887 164.253 130.581C164.832 129.379 165.439 128.119 166.068 126.812C166.23 126.484 166.373 126.158 166.556 125.821C166.744 125.487 167.015 125.195 167.341 124.981C167.987 124.542 168.857 124.432 169.61 124.713C172.407 126.037 175.024 127.324 177.428 128.485C177.723 128.628 178.038 128.771 178.298 128.989C178.558 129.202 178.772 129.463 178.928 129.75C179.242 130.324 179.324 130.995 179.175 131.59C179.105 131.889 178.968 132.162 178.843 132.415C178.718 132.672 178.595 132.924 178.474 133.171C178.233 133.665 178.001 134.14 177.78 134.593C177.338 135.497 176.937 136.315 176.583 137.037C176.495 137.216 176.413 137.39 176.316 137.556C176.213 137.716 176.101 137.862 175.973 137.982C175.721 138.227 175.437 138.389 175.167 138.484C174.621 138.674 174.157 138.612 173.872 138.537C173.584 138.453 173.452 138.365 173.452 138.365Z" fill="white"/>
<path d="M175.896 138.174C175.889 138.175 175.869 138.111 175.835 137.987C175.798 137.84 175.753 137.661 175.697 137.443C175.579 136.94 175.421 136.26 175.228 135.434C175.131 135.006 175.025 134.541 174.913 134.044C174.856 133.794 174.798 133.536 174.739 133.27C174.709 133.138 174.678 133.004 174.647 132.869C174.615 132.75 174.552 132.636 174.457 132.552C174.272 132.378 173.976 132.323 173.735 132.436C173.466 132.569 173.191 132.705 172.911 132.843C172.349 133.12 171.767 133.407 171.172 133.701C170.905 133.833 170.64 133.963 170.392 134.085L170.293 134.133L170.255 134.03C170.045 133.453 169.84 132.891 169.642 132.35C169.593 132.215 169.544 132.081 169.496 131.949C169.445 131.81 169.409 131.695 169.328 131.602C169.176 131.41 168.924 131.311 168.693 131.339C168.58 131.347 168.466 131.4 168.342 131.444C168.221 131.488 168.103 131.531 167.987 131.573C167.753 131.658 167.527 131.741 167.308 131.82C166.873 131.977 166.467 132.125 166.094 132.259C165.373 132.514 164.783 132.723 164.342 132.878C164.153 132.941 163.995 132.994 163.865 133.037C163.756 133.071 163.698 133.086 163.695 133.08C163.693 133.074 163.747 133.047 163.852 133.001C163.979 132.949 164.132 132.886 164.317 132.809C164.752 132.639 165.335 132.411 166.048 132.133C166.418 131.991 166.821 131.837 167.253 131.671C167.471 131.588 167.696 131.503 167.928 131.414C168.044 131.37 168.162 131.326 168.281 131.28C168.397 131.239 168.522 131.177 168.673 131.162C168.963 131.124 169.278 131.243 169.472 131.484C169.576 131.6 169.627 131.758 169.674 131.883C169.723 132.015 169.772 132.149 169.822 132.284C170.022 132.824 170.229 133.385 170.442 133.961L170.305 133.906C170.554 133.784 170.818 133.654 171.085 133.522C171.681 133.229 172.263 132.943 172.826 132.667C173.108 132.529 173.386 132.394 173.658 132.262C173.969 132.118 174.35 132.193 174.583 132.417C174.703 132.526 174.783 132.672 174.823 132.823C174.853 132.961 174.882 133.097 174.911 133.232C174.967 133.498 175.022 133.758 175.075 134.009C175.179 134.508 175.277 134.974 175.367 135.403C175.534 136.235 175.672 136.919 175.775 137.426C175.815 137.647 175.849 137.829 175.876 137.978C175.895 138.105 175.903 138.172 175.896 138.174Z" fill="white"/>
<path d="M171.485 130.379C171.492 130.363 171.592 130.408 171.78 130.437C171.964 130.465 172.251 130.462 172.544 130.304C172.833 130.154 173.112 129.82 173.15 129.388C173.197 128.965 172.962 128.469 172.511 128.256C172.064 128.035 171.529 128.16 171.227 128.46C170.912 128.758 170.823 129.184 170.886 129.503C170.944 129.831 171.121 130.057 171.257 130.184C171.396 130.313 171.493 130.364 171.485 130.379C171.482 130.388 171.371 130.362 171.207 130.243C171.046 130.127 170.833 129.895 170.748 129.531C170.659 129.177 170.74 128.682 171.099 128.328C171.442 127.971 172.072 127.816 172.598 128.076C173.129 128.326 173.399 128.916 173.332 129.407C173.277 129.908 172.94 130.279 172.608 130.429C172.27 130.589 171.955 130.566 171.764 130.513C171.569 130.458 171.48 130.387 171.485 130.379Z" fill="white"/>
<path d="M171.806 151.523L155.707 143.745C154.284 143.058 153.688 141.347 154.375 139.924L157.203 134.071L178.456 144.339L175.628 150.192C174.94 151.614 173.229 152.211 171.806 151.523Z" fill="#F1F5F9"/>
<path d="M179.458 120.954L176.258 127.576C175.731 128.668 176.188 129.982 177.28 130.51L183.647 133.587L179.458 120.954Z" fill="#F8FAFC"/>
<path d="M176.066 128.199C176.066 128.199 175.207 129.765 176.78 131.176C176.839 131.229 176.902 131.278 176.966 131.324C177.726 131.875 182.729 135.492 182.789 135.367C182.855 135.231 183.649 133.587 183.649 133.587L177.282 130.511C177.282 130.511 175.719 129.689 176.066 128.199Z" fill="#F1F5F9"/>
<path d="M164.036 142.197L164.735 142.535L164.087 143.876C163.591 143.973 163.02 143.878 162.548 143.65C161.508 143.148 161.088 142.065 161.57 141.069C162.051 140.073 163.16 139.729 164.213 140.238C164.794 140.519 165.18 140.95 165.321 141.478L164.611 141.694C164.493 141.322 164.271 141.07 163.936 140.908C163.294 140.598 162.647 140.815 162.344 141.444C162.045 142.062 162.272 142.713 162.904 143.019C163.112 143.119 163.324 143.175 163.568 143.165L164.036 142.197Z" fill="white"/>
<path d="M166.214 141.275L166.979 141.645L165.382 144.95L164.617 144.581L166.214 141.275Z" fill="white"/>
<path d="M168.23 143.006L167.808 143.88L169.338 144.619L169.041 145.233L167.511 144.493L166.929 145.698L166.164 145.328L167.761 142.023L170.259 143.23L169.963 143.844L168.23 143.006Z" fill="white"/>
<path d="M13.7604 38.9242L4.58854 12.9983C3.96889 11.9917 3.75019 10.1561 4.36849 9.1958C4.67809 8.71475 5.1218 8.34846 5.6654 8.16711L20.3381 3.2756C21.2232 2.94845 22.2276 3.19505 22.9148 3.9083L25.7795 6.88101L44.9832 0.497757C47.4641 -0.570993 49.7267 0.906806 50.1582 2.82426L57.3348 25.0511C57.9437 27.7592 56.3116 30.4952 54.0845 31.2377L20.1612 42.5503C17.8307 43.327 15.1775 41.9315 13.7604 38.9242Z" fill="#E2E8F0"/>
<g opacity="0.3">
<path d="M13.7604 38.9242L4.58854 12.9983C3.96889 11.9917 3.75019 10.1561 4.36849 9.1958C4.67809 8.71475 5.1218 8.34846 5.6654 8.16711L20.3381 3.2756C21.2232 2.94845 22.2276 3.19505 22.9148 3.9083L25.7795 6.88101L44.9832 0.497757C47.4641 -0.570993 49.7267 0.906806 50.1582 2.82426L57.3348 25.0511C57.9437 27.7592 56.3116 30.4952 54.0845 31.2377L20.1612 42.5503C17.8307 43.327 15.1775 41.9315 13.7604 38.9242Z" fill="#E2E8F0"/>
</g>
<path d="M13.2529 38.6677L5.78469 16.8508C5.40534 15.0562 6.12129 13.3943 7.46814 12.9452L45.9391 0.115705C47.5672 -0.426995 49.4455 0.998161 49.9513 3.16086L56.987 23.2988C58.6709 28.3478 56.4884 30.7517 54.1889 31.5185L20.4767 42.7609C17.0122 43.916 14.5277 43.0687 13.2529 38.6677Z" fill="#E2E8F0"/>
<path d="M41.1598 26.0797C41.1539 26.0649 41.3407 26.0127 41.6516 25.83C41.9522 25.6419 42.3887 25.2958 42.6821 24.678C42.8257 24.3715 42.9251 23.9998 42.9296 23.5885C42.9359 23.3829 42.9067 23.1696 42.8599 22.9522C42.8041 22.7389 42.7235 22.5148 42.6448 22.2826C42.3289 21.3516 41.9698 20.2945 41.5738 19.1281C41.3762 18.5431 41.1692 17.9307 40.9532 17.2926C40.8457 16.9735 40.7359 16.6477 40.6238 16.3161C40.5118 15.9799 40.4056 15.6514 40.2224 15.3513C39.866 14.7465 39.259 14.2654 38.5448 14.049C38.188 13.9405 37.8055 13.8991 37.4239 13.9338C37.0409 13.9626 36.6737 14.0971 36.2827 14.2285C33.1907 15.2671 29.7941 16.4083 26.2288 17.6062C25.4003 17.9721 24.7829 18.7438 24.6061 19.6078C24.5098 20.0371 24.5197 20.4853 24.6308 20.9047C24.7478 21.3232 24.9076 21.7557 25.0421 22.1746C25.6015 23.8599 26.141 25.4862 26.6554 27.0355C26.7886 27.4158 26.8988 27.8217 27.0473 28.1655C27.2066 28.5129 27.4393 28.8193 27.7196 29.0628C28.2799 29.5537 29.0269 29.7805 29.7221 29.7121C30.0709 29.6847 30.3967 29.5632 30.7333 29.4534C31.0658 29.344 31.3921 29.236 31.712 29.1307C32.3515 28.9201 32.9657 28.7181 33.5525 28.5255C35.8871 27.7641 37.7821 27.1462 39.1109 26.7129C39.7562 26.5081 40.2634 26.347 40.6261 26.2318C40.7894 26.1828 40.9199 26.1432 41.0221 26.1126C41.1121 26.0869 41.1584 26.0757 41.1598 26.0797C41.1611 26.0838 41.117 26.1027 41.0302 26.136C40.9298 26.1729 40.802 26.2197 40.6418 26.2782C40.2827 26.4037 39.7801 26.5792 39.1411 26.8029C37.8181 27.2538 35.9312 27.8968 33.607 28.6893C33.022 28.8868 32.4095 29.0938 31.7714 29.3098C31.4519 29.4174 31.1266 29.5272 30.7949 29.6392C30.4682 29.7481 30.119 29.8813 29.741 29.9142C28.9931 29.992 28.1863 29.7531 27.5783 29.2257C27.2741 28.9642 27.0208 28.633 26.8466 28.2582C26.6792 27.8716 26.5798 27.4963 26.4412 27.1075C25.9223 25.5595 25.3783 23.935 24.814 22.2511C24.6767 21.825 24.5233 21.4164 24.3959 20.9655C24.2753 20.5114 24.2636 20.0241 24.3676 19.5579C24.5588 18.6205 25.2284 17.7813 26.1289 17.3844C29.7136 16.1572 33.1102 15.0511 36.2107 14.0166C36.5914 13.8901 36.9896 13.7457 37.4036 13.716C37.814 13.68 38.2249 13.7268 38.6065 13.8451C39.3715 14.0805 40.0172 14.5998 40.3948 15.2482C40.5892 15.5704 40.7012 15.9273 40.8083 16.2553C40.9177 16.5879 41.0252 16.9141 41.131 17.2341C41.3416 17.8735 41.5436 18.4878 41.7362 19.0746C42.1196 20.2455 42.467 21.3061 42.773 22.2408C42.8491 22.4739 42.9256 22.6962 42.9823 22.9248C43.0282 23.1534 43.0547 23.377 43.0448 23.5917C43.0327 24.0214 42.922 24.4057 42.7663 24.7198C42.4486 25.3534 41.9891 25.6954 41.675 25.8732C41.3515 26.0446 41.1598 26.0797 41.1598 26.0797Z" fill="#64748B"/>
<path d="M43.1428 23.8234C43.1383 23.8306 43.065 23.7919 42.9295 23.7118C42.772 23.615 42.5785 23.4962 42.3441 23.3518C41.8104 23.0102 41.0908 22.5503 40.216 21.9905C39.766 21.698 39.2764 21.3803 38.7531 21.0406C38.4898 20.8691 38.2185 20.6918 37.939 20.5096C37.8 20.4196 37.6591 20.3282 37.5165 20.236C37.386 20.1599 37.2339 20.114 37.0786 20.1217C36.7681 20.1262 36.4599 20.3309 36.346 20.6356C36.2232 20.9821 36.0981 21.3362 35.9703 21.6962C35.7138 22.4198 35.4487 23.1682 35.1774 23.935C35.0554 24.2783 34.9344 24.6181 34.821 24.9371L34.7755 25.0645L34.654 25.006C33.9763 24.6797 33.3171 24.3625 32.6812 24.0565C32.5228 23.98 32.3653 23.904 32.2101 23.8288C32.0476 23.7505 31.918 23.6803 31.7664 23.6677C31.4689 23.6294 31.1638 23.7577 30.9843 23.98C30.8925 24.0839 30.838 24.227 30.766 24.3719C30.6981 24.5132 30.631 24.6523 30.5653 24.7891C30.4335 25.0627 30.3052 25.3282 30.181 25.5851C29.9335 26.095 29.7027 26.5702 29.4907 27.0071C29.0758 27.8468 28.7356 28.5344 28.4827 29.047C28.3698 29.2648 28.2766 29.4448 28.1997 29.5933C28.1326 29.717 28.0944 29.78 28.0872 29.7764C28.08 29.7728 28.1043 29.7031 28.1578 29.573C28.224 29.4196 28.3045 29.2333 28.4017 29.0078C28.638 28.4876 28.9552 27.7888 29.3422 26.936C29.5461 26.495 29.7679 26.0153 30.0055 25.5014C30.1257 25.2427 30.2503 24.9754 30.3786 24.7C30.4429 24.5618 30.5082 24.4223 30.5743 24.2801C30.6409 24.1451 30.6976 23.984 30.8164 23.8414C31.0387 23.561 31.4176 23.3963 31.7934 23.4413C31.9833 23.4553 32.1633 23.5493 32.3104 23.6195C32.4666 23.6938 32.6241 23.7685 32.7834 23.8441C33.4201 24.1478 34.0807 24.4624 34.7598 24.7864L34.5928 24.8552C34.7062 24.5357 34.8268 24.196 34.9483 23.8526C35.2215 23.0863 35.4879 22.3384 35.7457 21.6152C35.8762 21.253 36.0045 20.8975 36.13 20.5487C36.2799 20.1568 36.6781 19.8976 37.0737 19.8958C37.2717 19.8881 37.467 19.948 37.6303 20.0465C37.7748 20.1424 37.9174 20.2364 38.0578 20.3296C38.3346 20.5154 38.6041 20.6959 38.8651 20.8709C39.3826 21.2197 39.8664 21.5459 40.3119 21.8461C41.1696 22.4324 41.8743 22.9148 42.3972 23.2722C42.6217 23.4314 42.8067 23.5628 42.9574 23.6704C43.083 23.764 43.1473 23.8162 43.1428 23.8234Z" fill="#64748B"/>
<path d="M32.6144 20.7526C32.6072 20.7324 32.7332 20.6865 32.9222 20.5519C33.1076 20.4192 33.3574 20.1712 33.4789 19.7829C33.6049 19.4044 33.5639 18.873 33.2282 18.4621C32.9083 18.0504 32.2778 17.8159 31.7009 18.0139C31.1204 18.2016 30.7568 18.7677 30.7478 19.2892C30.7258 19.8193 31.012 20.2689 31.34 20.4961C31.6708 20.7337 32.0186 20.7819 32.2468 20.7769C32.4799 20.7715 32.6086 20.7324 32.6144 20.7526C32.6189 20.7634 32.5001 20.8354 32.2549 20.8714C32.0146 20.9065 31.628 20.8854 31.2437 20.6383C30.863 20.4034 30.512 19.9003 30.5237 19.2829C30.5192 18.6768 30.94 18.0027 31.6244 17.7822C32.3039 17.5482 33.0446 17.8348 33.4051 18.3222C33.7849 18.8086 33.806 19.422 33.6427 19.8382C33.4834 20.2662 33.1868 20.5155 32.9735 20.6316C32.7557 20.7499 32.6176 20.7643 32.6144 20.7526Z" fill="#64748B"/>
<path d="M58.4528 155.256L41.626 84.1159C40.9217 81.1387 41.8721 77.9297 44.1995 76.0784C45.365 75.1514 46.7681 74.615 48.2653 74.615L94.8488 73.1422C97.3139 73.0643 99.5995 74.4913 100.714 76.8043L105.359 86.4446L164.521 86.5013C168.865 86.5013 173.427 92.5318 172.911 97.5911L177.958 156.868C177.229 164.014 170.92 169.393 164.784 169.393H71.3237C64.9036 169.393 59.4797 163.796 58.4528 155.256Z" fill="#94A3B8"/>
<g opacity="0.3">
<path d="M58.4528 155.256L41.626 84.1159C40.9217 81.1387 41.8721 77.9297 44.1995 76.0784C45.365 75.1514 46.7681 74.615 48.2653 74.615L94.8488 73.1422C97.3139 73.0643 99.5995 74.4913 100.714 76.8043L105.359 86.4446L164.521 86.5013C168.865 86.5013 173.427 92.5318 172.911 97.5911L177.958 156.868C177.229 164.014 170.92 169.393 164.784 169.393H71.3237C64.9036 169.393 59.4797 163.796 58.4528 155.256Z" fill="#94A3B8"/>
</g>
<path d="M59.257 157.329L54.8047 78.5138L165.143 76.8447L169.011 155.831L59.257 157.329Z" fill="#F1F5F9"/>
<path d="M58.7572 81.7447C58.7572 82.1848 58.4269 82.5417 58.0192 82.5417C57.6115 82.5417 57.2812 82.1848 57.2812 81.7447C57.2812 81.3046 57.6115 80.9478 58.0192 80.9478C58.4269 80.9478 58.7572 81.3046 58.7572 81.7447Z" fill="#F8FAFC"/>
<path d="M61.6166 81.7447C61.6166 82.1848 61.2863 82.5417 60.8786 82.5417C60.4709 82.5417 60.1406 82.1848 60.1406 81.7447C60.1406 81.3046 60.4709 80.9478 60.8786 80.9478C61.2863 80.9478 61.6166 81.3046 61.6166 81.7447Z" fill="#F8FAFC"/>
<path d="M64.4799 81.7448C64.4799 82.1849 64.1496 82.5418 63.7419 82.5418C63.3342 82.5418 63.0039 82.1849 63.0039 81.7448C63.0039 81.3047 63.3342 80.9479 63.7419 80.9479C64.1496 80.9479 64.4799 81.3047 64.4799 81.7448Z" fill="#F8FAFC"/>
<path d="M98.3044 81.7449L104.96 121.3L52.5935 129.165L45.9375 89.6104L98.3044 81.7449Z" fill="#F8FAFC"/>
<path d="M98.3057 81.7449C98.3057 81.7449 98.2184 81.7629 98.0532 81.7903C97.8804 81.8182 97.6375 81.8569 97.3198 81.9082C96.6668 82.0099 95.715 82.158 94.4775 82.3506C91.989 82.7326 88.3611 83.2893 83.7621 83.9949C74.5668 85.3921 61.4975 87.378 45.9608 89.7387L46.0751 89.5897C48.061 101.362 50.3375 114.857 52.7464 129.138L52.7473 129.142L52.5713 129.021C71.9596 126.118 89.9776 123.421 104.942 121.18L104.836 121.318C102.859 109.404 101.22 99.5275 100.074 92.6205C99.5067 89.1649 99.0622 86.4541 98.7571 84.5974C98.6081 83.6754 98.4938 82.9671 98.4155 82.4802C98.339 82 98.3057 81.7449 98.3057 81.7449C98.3057 81.7449 98.3548 81.9798 98.4389 82.4509C98.5231 82.9315 98.6459 83.6308 98.8057 84.5416C99.1243 86.3898 99.5896 89.088 100.183 92.5278C101.363 99.4483 103.051 109.343 105.088 121.281L105.108 121.4L104.982 121.419C90.0199 123.674 72.0046 126.388 52.6195 129.309L52.4674 129.332L52.4431 129.188L52.4422 129.184C50.045 114.902 47.7793 101.405 45.8029 89.6311L45.7812 89.5024L45.9172 89.4822C61.4988 87.1687 74.606 85.2229 83.8283 83.8536C88.4188 83.179 92.0403 82.6471 94.5243 82.2817C95.7524 82.104 96.6974 81.9672 97.345 81.8736C97.6573 81.8299 97.8962 81.7966 98.0658 81.7728C98.2269 81.7516 98.3057 81.7449 98.3057 81.7449Z" fill="#E2E8F0"/>
<path d="M53.9821 126.404L102.67 119.091L96.8518 84.5165L48.1641 91.8294L53.9821 126.404Z" fill="#CBD5E1"/>
<g opacity="0.3">
<path d="M53.9805 126.404L67.3693 102.359L80.166 114.222L86.101 105.961L102.668 119.091L53.9805 126.404Z" fill="#94A3B8"/>
</g>
<g opacity="0.3">
<path d="M81.9307 97.4719C82.2673 99.4726 80.8241 101.352 78.7064 101.67C76.5892 101.988 74.6002 100.624 74.2636 98.6239C73.927 96.6232 75.3706 94.744 77.4878 94.4263C79.6051 94.1086 81.5945 95.4717 81.9307 97.4719Z" fill="#94A3B8"/>
</g>
<path d="M62.4435 161.066L60.9531 84.3805L173.805 84.1411L173.34 159.925L62.4435 161.066Z" fill="#F8FAFC"/>
<path d="M67.4916 87.3829C67.4916 87.823 67.1613 88.1798 66.7536 88.1798C66.3459 88.1798 66.0156 87.823 66.0156 87.3829C66.0156 86.9428 66.3459 86.5859 66.7536 86.5859C67.1613 86.5859 67.4916 86.9428 67.4916 87.3829Z" fill="#F1F5F9"/>
<path d="M70.1401 87.3829C70.1401 87.823 69.8098 88.1798 69.4021 88.1798C68.9944 88.1798 68.6641 87.823 68.6641 87.3829C68.6641 86.9428 68.9944 86.5859 69.4021 86.5859C69.8098 86.5859 70.1401 86.9428 70.1401 87.3829Z" fill="#F1F5F9"/>
<path d="M64.683 87.3829C64.683 87.823 64.3527 88.1798 63.945 88.1798C63.5373 88.1798 63.207 87.823 63.207 87.3829C63.207 86.9428 63.5373 86.5859 63.945 86.5859C64.3527 86.5859 64.683 86.9428 64.683 87.3829Z" fill="#F1F5F9"/>
<path d="M65.0664 162.937V90.023L177.453 89.7872L171.419 164.504L65.0664 162.937Z" fill="white"/>
<path d="M59.5959 154.865L66.318 100.077C66.8436 95.7921 69.8946 92.6187 73.4878 92.6187H176.139C180.483 92.6187 183.851 97.1938 183.335 102.393L177.959 156.523C176.386 167.782 172.062 169.394 165.926 169.394H69.9972C63.5779 169.393 57.3652 167.781 59.5959 154.865Z" fill="#94A3B8"/>
<g opacity="0.7">
<path d="M128.038 121.562L130.992 127.549C131.232 128.035 131.696 128.371 132.232 128.449L138.838 129.409C140.188 129.605 140.727 131.264 139.75 132.216L134.969 136.876C134.581 137.254 134.404 137.799 134.496 138.333L135.625 144.913C135.855 146.257 134.444 147.283 133.236 146.648L127.327 143.542C126.848 143.29 126.275 143.29 125.796 143.542L119.887 146.648C118.679 147.283 117.268 146.257 117.499 144.913L118.627 138.333C118.719 137.799 118.542 137.255 118.154 136.876L113.374 132.217C112.397 131.265 112.936 129.606 114.286 129.409L120.892 128.45C121.428 128.372 121.891 128.035 122.131 127.549L125.086 121.563C125.69 120.339 127.435 120.339 128.038 121.562Z" fill="white"/>
</g>
</svg>
