<svg width="16" height="16" viewBox="0 0 16 16" fill="none" xmlns="http://www.w3.org/2000/svg">
<path fill-rule="evenodd" clip-rule="evenodd" d="M8.00008 3.66667C7.186 3.66685 6.38843 3.89635 5.69875 4.32887C5.00906 4.76139 4.45517 5.37945 4.10052 6.11222C3.74587 6.845 3.60481 7.66286 3.69351 8.4721C3.7822 9.28134 4.09705 10.0492 4.602 10.6878C5.10694 11.3264 5.78156 11.8098 6.54855 12.0826C7.31554 12.3555 8.14389 12.4068 8.93869 12.2307C9.73349 12.0545 10.4626 11.658 11.0425 11.0867C11.6224 10.5153 12.0296 9.79211 12.2174 9H8.66675C8.40153 9 8.14718 8.89464 7.95964 8.70711C7.77211 8.51957 7.66675 8.26522 7.66675 8C7.66675 7.73478 7.77211 7.48043 7.95964 7.29289C8.14718 7.10536 8.40153 7 8.66675 7H13.3334C13.5986 7 13.853 7.10536 14.0405 7.29289C14.2281 7.48043 14.3334 7.73478 14.3334 8C14.3334 9.4645 13.8259 10.8837 12.8972 12.0161C11.9685 13.1485 10.6761 13.9241 9.23992 14.2108C7.80375 14.4975 6.31261 14.2776 5.02033 13.5886C3.72804 12.8995 2.71448 11.7839 2.15218 10.4317C1.58988 9.07944 1.5136 7.57411 1.93631 6.17194C2.35902 4.76977 3.2546 3.55743 4.47061 2.74128C5.68662 1.92514 7.14789 1.55563 8.60568 1.69567C10.0635 1.83571 11.4277 2.47663 12.4661 3.50933C12.5592 3.60196 12.6331 3.71202 12.6837 3.83322C12.7343 3.95443 12.7605 4.08441 12.7608 4.21574C12.7612 4.34707 12.7356 4.47719 12.6857 4.59865C12.6358 4.72012 12.5624 4.83056 12.4697 4.92367C12.3771 5.01677 12.2671 5.09072 12.1459 5.1413C12.0247 5.19187 11.8947 5.21808 11.7633 5.21842C11.4981 5.2191 11.2435 5.1144 11.0554 4.92733C10.2443 4.11872 9.14537 3.66527 8.00008 3.66667Z" fill="#475569"/>
</svg>
