<svg width="349" height="220" viewBox="0 0 349 220" fill="none" xmlns="http://www.w3.org/2000/svg">
<g clip-path="url(#clip0_557_64)">
<path d="M326.703 161.987L327.154 161.851C327.18 161.769 327.204 161.686 327.231 161.605C327.684 160.2 328.582 159.039 329.952 158.401C331.161 157.838 332.476 157.968 333.697 158.428C334.5 158.731 335.331 159.221 335.688 160.042C335.936 160.611 335.899 161.236 335.665 161.799C335.228 162.852 334.224 163.595 333.19 163.997C331.935 164.487 330.541 164.55 329.296 163.999C328.551 163.669 327.734 163.085 327.358 162.345C327.152 162.179 326.942 162.096 326.703 161.987Z" fill="#CBD5E1"/>
<path d="M312.877 157.576C312.076 158.185 311.139 158.582 310.131 158.67C308.868 158.781 306.716 158.188 305.775 157.279C305.104 156.63 304.592 155.723 304.61 154.768C304.622 154.123 304.88 153.552 305.358 153.118C306.136 152.412 307.316 152.162 308.339 152.197C309.722 152.243 311.17 152.881 312.063 153.952C312.816 154.856 313.067 155.806 312.965 156.959L312.877 157.576Z" fill="#CBD5E1"/>
<path d="M322.56 125.283C321.765 123.6 321.403 121.893 322.044 120.06C322.423 118.973 323.198 118.06 324.271 117.61C325.076 117.273 325.983 117.262 326.775 117.64C326.871 117.686 326.964 117.737 327.054 117.793C327.144 117.849 327.231 117.909 327.315 117.975C327.398 118.04 327.478 118.109 327.555 118.182C327.631 118.256 327.703 118.334 327.771 118.415C327.839 118.496 327.903 118.581 327.962 118.669C328.021 118.757 328.075 118.848 328.124 118.942C328.174 119.036 328.218 119.132 328.257 119.231C328.296 119.329 328.33 119.43 328.358 119.532C328.708 120.766 328.22 122.1 327.564 123.144C326.65 124.6 325.342 125.418 323.666 125.742C323.515 125.771 323.363 125.788 323.212 125.806C322.968 125.521 322.876 125.452 322.56 125.283Z" fill="#CBD5E1"/>
<path d="M339.546 148.569C340.207 147.157 340.965 146.135 342.471 145.537C343.691 145.052 345.184 145.044 346.39 145.576C347.285 145.971 348.054 146.694 348.389 147.626C348.605 148.228 348.593 148.898 348.317 149.479C347.903 150.354 346.897 150.985 346 151.258C344.225 151.796 342.544 151.397 340.984 150.487C340.368 150.127 339.89 149.737 339.602 149.072L339.546 148.569Z" fill="#CBD5E1"/>
<path d="M313.946 142.482C313.928 142.485 313.908 142.482 313.891 142.49C313.583 142.635 313.292 142.808 312.977 142.944C311.868 143.422 310.751 143.251 309.661 142.768C308.379 142.2 306.94 141.123 306.46 139.748C306.182 138.954 306.228 138.115 306.639 137.374C307.061 136.614 307.814 136.087 308.653 135.889C309.616 135.661 310.66 135.867 311.484 136.406C313.35 137.627 313.799 139.821 314.261 141.838L313.946 142.482Z" fill="#CBD5E1"/>
<path d="M343.33 137.38C343.287 137.303 343.238 137.229 343.202 137.149C342.788 136.227 342.974 135.064 343.378 134.171C343.983 132.832 345.139 131.606 346.529 131.08C347.21 130.823 347.965 130.764 348.643 131.064C349.446 131.418 350.034 132.16 350.294 132.987C350.648 134.111 350.373 135.28 349.794 136.277C349.233 137.243 348.312 138.056 347.203 138.303C346.025 138.565 344.951 138.492 343.828 138.083L343.544 137.981L343.33 137.38Z" fill="#CBD5E1"/>
<path d="M331.406 141.536C330.259 141.269 329.287 140.6 328.631 139.61C327.818 138.383 327.611 136.658 327.942 135.241C328.193 134.163 328.818 133.018 329.816 132.467C330.388 132.151 330.949 132.103 331.574 132.282C332.512 132.551 333.366 133.624 333.752 134.47C334.498 136.101 334.429 137.305 333.756 138.938C333.342 139.943 332.733 140.689 331.983 141.458C331.975 142.813 332.007 144.182 331.946 145.534C331.849 144.346 332.115 142.693 331.708 141.595L331.406 141.536Z" fill="#CBD5E1"/>
<path d="M316.062 128.311C315.362 128.112 314.673 127.882 313.994 127.621C312.239 126.943 310.321 125.735 309.597 123.921C309.287 123.145 309.271 122.277 309.621 121.512C309.987 120.71 310.695 120.11 311.516 119.808C311.636 119.763 311.757 119.725 311.881 119.694C312.005 119.662 312.13 119.637 312.256 119.618C312.383 119.599 312.51 119.587 312.637 119.582C312.765 119.576 312.893 119.577 313.02 119.585C313.148 119.593 313.274 119.607 313.4 119.628C313.527 119.649 313.651 119.676 313.774 119.71C313.897 119.744 314.019 119.784 314.138 119.83C314.257 119.876 314.373 119.929 314.487 119.987C317.638 121.634 316.424 124.839 316.758 127.557C316.87 128.471 317.517 129.453 317.798 130.351L317.345 131.091C316.719 130.359 316.371 129.216 316.062 128.311Z" fill="#CBD5E1"/>
<path d="M322.559 125.283C322.875 125.452 322.968 125.521 323.211 125.807C321.62 127.963 320.311 130.37 318.636 132.445C318.696 142.833 318.545 153.229 318.678 163.616C320.838 160.195 323.248 156.961 325.909 153.913C327.646 151.936 329.533 150.088 331.26 148.105C331.23 146.131 330.872 143.424 331.405 141.536L331.706 141.595C332.114 142.693 331.848 144.346 331.945 145.534L331.982 147.486C335.885 144.248 339.285 140.485 343.329 137.38L343.544 137.981C339.603 141.405 335.617 144.868 331.908 148.544C334.437 148.518 337.026 148.387 339.546 148.569L339.601 149.072C336.851 149.119 334.101 149.125 331.351 149.09C327.337 153.32 323.369 157.592 320.179 162.499L326.702 161.987C326.941 162.096 327.151 162.179 327.357 162.345C327.234 162.382 327.112 162.421 326.988 162.456C324.848 163.064 321.114 162.383 319.341 163.523C317.728 166.394 319.145 185.773 318.557 190.71L318.202 190.591C317.669 189.436 318.065 166.928 317.918 163.707L317.929 161.569C316.199 160.347 314.423 159.025 312.877 157.576L312.965 156.959C314.684 158.167 316.166 159.685 317.906 160.885C318.02 156.351 317.966 151.803 317.96 147.268C316.564 145.709 315.222 144.144 313.947 142.482L314.261 141.838C315.476 143.351 316.71 144.847 317.964 146.327C317.979 143.298 318.384 134.698 317.847 132.193C317.761 131.796 317.553 131.435 317.344 131.092L317.797 130.351C317.989 130.741 318.122 131.249 318.508 131.455C319.894 129.45 321.393 127.422 322.559 125.283Z" fill="#CBD5E1"/>
<path d="M317.918 163.708C318.065 166.928 317.67 189.436 318.202 190.591L318.557 190.711L332.597 190.69L332.584 213.817L305.076 213.816C304.998 206.103 305.084 198.382 305.099 190.668L317.947 190.674C317.812 186.16 317.882 181.628 317.876 177.111C317.869 172.648 317.783 168.169 317.918 163.708Z" fill="#94A3B8"/>
<path d="M215.744 199.309C217.035 203.488 218.927 210.176 221.041 213.816H305.077L332.584 213.817C336.005 213.796 341.008 213.383 344.237 213.97C344.59 214.015 344.873 214.095 345.185 214.266C345.937 214.677 346.575 215.566 346.758 216.402C346.92 217.146 346.671 217.955 346.253 218.571C345.717 219.358 344.996 219.684 344.076 219.818C341.933 220.129 339.548 219.926 337.382 219.917L324.464 219.877L277.869 219.865L117.962 219.894L43.7797 219.892L18.6928 219.873C14.8994 219.87 11.0015 220.138 7.22082 219.904C6.10796 219.836 4.89855 219.56 4.0214 218.831C3.52262 218.417 3.21108 217.888 3.18528 217.231C3.15362 216.427 3.57109 215.499 4.13788 214.94C4.93451 214.155 6.02861 213.88 7.11157 213.79C10.5197 213.508 14.2007 213.861 17.6374 213.855L46.6123 213.947L137.639 213.919C140.189 209.667 141.48 204.185 143.056 199.475L190.209 199.489C198.684 199.487 207.286 199.784 215.744 199.309Z" fill="#94A3B8"/>
<path d="M215.744 199.309C217.036 203.488 218.927 210.176 221.042 213.816H305.077L332.585 213.817C336.006 213.796 341.008 213.383 344.238 213.97C341.614 214.149 338.911 214.026 336.278 214.027L321.419 214.025L275.458 214.004L137.64 213.919C140.189 209.667 141.481 204.185 143.057 199.475L190.209 199.489C198.684 199.487 207.287 199.784 215.744 199.309Z" fill="#CBD5E1"/>
<path d="M294.996 57.5212C294.795 55.8873 294.989 54.2006 294.91 52.553C294.817 50.5986 294.156 48.5171 292.626 47.2076C291.252 46.031 289.78 45.8375 288.042 45.7672C283.086 45.5659 278.053 45.7457 273.089 45.7437L243.825 45.7535L157.364 45.818L95.4436 45.7105L74.4215 45.6538C70.2664 45.644 66.0448 45.4662 61.9014 45.7555C62.1085 45.4291 62.3607 45.1339 62.6323 44.8603C63.4122 44.0707 64.3991 43.5117 65.5112 43.4082C69.1172 43.0681 72.9362 43.3046 76.5656 43.3085L96.9758 43.328L162.895 43.3437L198.664 43.373L210.996 43.3691C220.864 43.3613 230.787 43.1404 240.651 43.4023C244.562 43.5997 248.57 43.4336 252.491 43.4199L278.651 43.1834C281.835 43.158 287.577 42.7163 290.425 43.3026C291.514 43.5254 292.682 44.0434 293.48 44.8329C293.929 45.2766 294.346 45.7867 294.699 46.3105C295.596 49.037 295.268 54.6052 294.996 57.5212Z" fill="#64748B"/>
<path d="M295.248 184.23C295.102 185.416 294.824 186.986 294.045 187.922C292.821 189.392 291.324 190.185 289.428 190.283C281.839 190.674 273.81 190.312 266.184 190.3C248.32 190.271 230.425 190.062 212.564 190.32C213.631 193.312 214.737 196.297 215.744 199.309C207.287 199.783 198.683 199.486 190.209 199.488L143.056 199.475C144.234 196.478 145.198 193.355 146.253 190.31C136.85 190.05 127.401 190.197 117.994 190.197L68.5933 190.16L63.9945 190.13L63.9925 189.91C63.4726 188.453 63.8166 185.973 63.8303 184.408C64.2759 184.257 64.7098 184.091 65.1457 183.919C65.5659 182.739 65.2062 178.441 65.1867 176.901H60.6407C60.6485 175.967 60.6485 175.101 60.4452 174.18C60.3631 168.078 60.4003 161.973 60.3905 155.869C60.3866 152.423 60.1716 148.829 60.4589 145.397C60.8771 147.961 60.5859 150.985 60.5957 153.594C60.6191 160.444 60.4628 167.344 60.668 174.186C62.5032 171.841 64.3228 170.733 67.0669 169.663C67.3776 169.542 67.2643 169.593 67.5516 169.329C66.8206 167.101 67.2291 159.944 67.2291 157.141L67.2525 135.185L67.2779 52.8345C81.4438 52.5609 95.6721 52.856 109.846 52.856L199.291 52.8403L258.436 52.8364L276.99 52.8423C280.801 52.8384 284.651 52.7153 288.455 52.9302C288.652 57.7988 288.513 62.7201 288.51 67.5945C288.75 71.6206 288.605 75.721 288.611 79.7589L288.642 101.703L288.715 169.929L295.108 169.941C295.094 166.849 294.871 163.583 295.186 160.513C295.473 165.252 295.319 170.084 295.334 174.833C295.346 177.872 295.624 181.222 295.248 184.23Z" fill="#F8FAFC"/>
<path d="M183.384 102.26C193.339 102.189 203.295 102.169 213.25 102.199C218.162 102.2 224.492 101.869 229.237 102.3C227.576 102.513 225.788 102.402 224.111 102.399L214.971 102.382L184.714 102.396C184.695 107.894 184.831 158.195 184.425 158.746L184.376 158.643L184.402 159.235L184.53 159.412C184.507 159.726 184.532 159.543 184.429 159.956L183.878 159.994C183.635 159.498 183.595 159.042 183.556 158.499C183.227 153.836 183.554 147.965 183.526 143.178C183.444 129.551 183.637 115.881 183.384 102.26Z" fill="#CBD5E1"/>
<path d="M84.1038 135.25L126.314 135.306L126.306 139.548L84.0977 139.55L84.1038 135.25Z" fill="#E2E8F0"/>
<path d="M198.827 135.25L235.763 135.305L235.76 139.47C223.471 139.649 211.12 139.471 198.824 139.469L198.827 135.25Z" fill="#E2E8F0"/>
<path d="M198.628 124.305L252.375 124.34L252.369 128.605L198.634 128.552L198.628 124.305Z" fill="#CBD5E1"/>
<path d="M83.9687 124.305L148.79 124.319L148.76 128.605H83.9023C83.9036 127.171 83.9257 125.738 83.9687 124.305Z" fill="#CBD5E1"/>
<path d="M198.628 146.39L237.734 146.437C247.886 146.45 258.056 146.581 268.206 146.486L268.183 150.662C261.232 151.119 251.823 150.732 244.629 150.737L198.637 150.859L198.628 146.39Z" fill="#CBD5E1"/>
<path d="M83.9653 112.806L166.185 112.774L166.144 117.074L83.9023 117.038L83.9653 112.806Z" fill="#CBD5E1"/>
<path d="M84.0977 146.39L166.039 146.491C166.057 147.641 166.534 149.965 165.656 150.885L84.1064 150.823L84.0977 146.39Z" fill="#CBD5E1"/>
<path d="M198.653 112.578L268.175 112.691C268.191 114.212 268.272 115.753 268.088 117.269L198.628 117.234L198.653 112.578Z" fill="#CBD5E1"/>
<path d="M149.368 94.5889C149.043 89.2675 149.297 83.8089 149.329 78.4715C149.347 75.4437 149.007 71.9642 149.537 68.9886C149.629 68.4732 149.943 68.0389 150.279 67.6521C151.305 66.4726 152.585 66.3776 154.068 66.308C161.388 65.9656 168.86 66.3004 176.197 66.3069L216.917 66.2713L251.944 66.2908C258.107 66.2852 264.433 65.956 270.576 66.3301C271.73 66.4003 272.791 66.6508 273.675 67.4428C275.068 68.6919 275.196 69.922 275.24 71.6785C275.419 78.7622 275.359 85.8765 275.365 92.9632C275.368 95.6757 275.719 99.6611 275.259 102.236C274.93 99.759 275.146 96.9991 275.152 94.4908L275.142 80.4068H149.466C149.507 85.0899 149.7 89.9215 149.368 94.5889Z" fill="#CBD5E1"/>
<path d="M97.8045 62.3454L139.987 62.3687L139.94 104.012C135.348 103.913 130.74 103.977 126.145 103.972L83.6924 104.04L83.8177 62.3835L97.8045 62.3454Z" fill="#CBD5E1"/>
<path d="M110.131 69.1418C111.277 69.0403 112.366 69.0009 113.465 69.3994C114.997 69.9544 116.247 71.0966 116.877 72.6066C116.956 72.798 117.025 72.9928 117.085 73.191C117.144 73.3892 117.193 73.5901 117.231 73.7938C117.27 73.997 117.298 74.2018 117.316 74.408C117.334 74.6142 117.341 74.8206 117.337 75.0276C117.334 75.2346 117.32 75.4408 117.295 75.6464C117.271 75.852 117.236 76.0556 117.191 76.2575C117.146 76.4596 117.09 76.6588 117.025 76.855C116.959 77.0514 116.884 77.2439 116.799 77.4326C115.972 79.2428 114.571 80.1359 112.777 80.7879C111.483 80.9593 110.235 80.88 109.021 80.3619C108.834 80.2833 108.652 80.1952 108.474 80.0976C108.297 80.0001 108.125 79.894 107.958 79.7789C107.791 79.6636 107.631 79.5402 107.477 79.4085C107.323 79.277 107.176 79.1378 107.036 78.9912C106.896 78.8446 106.764 78.6914 106.641 78.5311C106.517 78.3711 106.401 78.2049 106.294 78.0329C106.187 77.8609 106.089 77.6839 106 77.5019C105.912 77.3198 105.832 77.1335 105.763 76.9435C105.695 76.7534 105.637 76.5605 105.588 76.3648C105.54 76.1688 105.502 75.971 105.474 75.7713C105.446 75.5713 105.428 75.3704 105.421 75.1689C105.414 74.9674 105.416 74.7659 105.43 74.5646C105.443 74.3633 105.466 74.1631 105.5 73.9642C105.533 73.7652 105.577 73.5684 105.631 73.3739C105.684 73.1795 105.748 72.9883 105.821 72.8001C105.894 72.6121 105.977 72.4284 106.069 72.249C106.939 70.5537 108.369 69.6976 110.131 69.1418Z" fill="#64748B"/>
<path d="M109.577 84.0929C111.235 83.9495 113.074 84.0345 114.721 84.2976C117.778 84.7866 121.013 86.3867 122.834 88.9679C123.665 90.1467 125.085 92.2856 124.823 93.7364C123.884 94.5514 114.241 94.1304 112.403 94.1241L102.853 94.1421C100.945 94.1462 98.9344 94.2842 97.0425 94.018C96.7214 93.7897 96.7313 93.9023 96.7001 93.5499C96.5535 91.8982 98.2998 89.8285 99.3431 88.6454C102.168 85.445 105.417 84.356 109.577 84.0929Z" fill="#64748B"/>
<path d="M149.464 80.4074H275.14L275.151 94.4913C275.145 96.9997 274.929 99.7595 275.257 102.236C268.822 102.318 262.309 102.02 255.888 102.3C251.142 101.869 244.813 102.2 239.901 102.199C229.946 102.169 219.99 102.189 210.035 102.26L170.779 102.243C165.185 102.233 159.389 102.609 153.815 102.257C152.848 102.195 151.869 102.074 151.056 101.504C150.158 100.875 149.685 100.011 149.512 98.9484C149.253 97.5395 149.359 96.0213 149.367 94.5887C149.698 89.9214 149.505 85.0899 149.464 80.4074Z" fill="#CBD5E1"/>
<path d="M149.609 95.1733C160.427 94.997 171.273 95.0885 182.093 95.0867L237.077 95.0496C245.518 95.0523 253.959 95.0023 262.4 94.8995C266.609 94.8487 270.982 95.1074 275.15 94.491C275.144 96.9993 274.929 99.7592 275.257 102.236C268.822 102.318 262.309 102.02 255.888 102.3C251.142 101.868 244.812 102.2 239.901 102.198C229.945 102.168 219.99 102.189 210.034 102.26L170.778 102.243C165.184 102.233 159.389 102.609 153.815 102.256C152.847 102.195 151.868 102.073 151.056 101.504C150.157 100.874 149.684 100.011 149.512 98.9481C149.672 97.7217 149.6 96.4116 149.609 95.1733Z" fill="#E2E8F0"/>
<path d="M295.246 184.201C295.1 185.388 294.822 186.957 294.043 187.893C292.819 189.363 291.322 190.157 289.426 190.254C281.837 190.645 273.808 190.284 266.182 190.272C248.318 190.243 230.423 190.033 212.562 190.291C213.629 193.284 214.735 196.268 215.742 199.28C207.285 199.755 198.681 199.458 190.207 199.46L143.054 199.446C144.232 196.45 145.196 193.327 146.251 190.282C136.848 190.022 127.399 190.168 117.992 190.168L68.5913 190.131L63.9925 190.102H63.8237C61.9474 190.102 60.4433 188.598 60.4433 186.721C60.4433 186.086 60.4433 185.436 60.4433 184.833C60.4433 183.562 60.4628 181.975 60.4433 180.435V176.917C60.4511 175.983 60.4581 175.256 60.4433 174.152C60.3612 168.05 60.3983 161.944 60.3885 155.84C60.3846 152.395 60.1696 148.8 60.4569 145.368C60.8752 147.933 60.584 150.956 60.5937 153.565C60.6172 160.416 60.4608 167.315 60.6661 174.157C62.5013 171.812 64.3209 170.704 67.0649 169.635C67.3757 169.514 67.2623 169.564 67.5496 169.301C68.0851 169.545 68.4858 169.637 69.078 169.658C76.6476 169.94 84.309 169.684 91.8903 169.68L136.565 169.678L288.506 169.778L288.463 101.868L288.441 79.9336C288.437 75.8312 288.281 71.6565 288.508 67.5659C288.748 71.592 288.603 75.6924 288.609 79.7303L288.64 101.675L288.713 169.901L295.106 169.912C295.092 166.82 294.869 163.555 295.184 160.484C295.471 165.224 295.317 170.055 295.332 174.804C295.344 177.844 295.622 181.193 295.246 184.201Z" fill="#64748B"/>
<path fill-rule="evenodd" clip-rule="evenodd" d="M295.05 68.5799C295.045 70.7715 295.039 72.9631 295.051 75.1542L295.159 117.749C295.162 122.482 295.19 127.219 295.218 131.957C295.274 141.478 295.33 151.004 295.186 160.513C294.959 162.73 295.012 165.049 295.064 167.331C295.084 168.209 295.104 169.082 295.108 169.941L288.715 169.929L288.643 101.703L288.611 79.7589C288.61 78.6259 288.62 77.4879 288.63 76.348C288.656 73.4257 288.683 70.4908 288.51 67.5944C288.511 66.2007 288.523 64.803 288.535 63.4039C288.565 59.91 288.596 56.4066 288.455 52.9302C285.642 52.7712 282.803 52.7972 279.973 52.823C278.977 52.8322 277.982 52.8413 276.99 52.8423L258.437 52.8364L199.291 52.8403L109.846 52.8559C105.005 52.8559 100.159 52.8215 95.3102 52.7871C85.9614 52.7207 76.6061 52.6543 67.2781 52.8344L67.2526 135.185L67.2292 157.141C67.2292 157.782 67.2079 158.649 67.1837 159.633C67.102 162.957 66.9877 167.61 67.5517 169.329C67.3985 169.47 67.3592 169.521 67.3089 169.557C67.2647 169.588 67.2121 169.607 67.067 169.663C64.3229 170.733 62.5033 171.841 60.6681 174.186C60.531 169.615 60.5553 165.019 60.5795 160.429C60.5916 158.148 60.6036 155.868 60.5958 153.594C60.5929 152.828 60.616 152.027 60.6394 151.213C60.6958 149.25 60.7545 147.209 60.459 145.397L60.3632 144.772C60.3447 144.769 60.3261 144.766 60.3076 144.763V121.491C60.332 121.477 60.3564 121.463 60.3808 121.449L60.3886 116.594C60.3616 116.601 60.3346 116.607 60.3076 116.613V81.2692C60.3496 81.2543 60.3915 81.2395 60.4336 81.2247L60.4062 49.164C60.6232 47.7724 61.0629 46.8812 61.9014 45.7555C62.1086 45.4291 62.3607 45.1339 62.6323 44.8603C63.4122 44.0707 64.3992 43.5117 65.5112 43.4082C68.087 43.1652 70.7716 43.2165 73.418 43.2671C74.4764 43.2873 75.5287 43.3074 76.5656 43.3085L96.9759 43.328L162.895 43.3437L198.664 43.373L210.996 43.3691C214.016 43.3667 217.04 43.3443 220.066 43.322C226.931 43.2713 233.805 43.2205 240.651 43.4023C243.41 43.5416 246.218 43.4999 249.009 43.4585C250.174 43.4412 251.337 43.4239 252.491 43.4199L278.651 43.1834C279.482 43.1768 280.487 43.1418 281.568 43.1042C284.634 42.9975 288.32 42.8692 290.425 43.3026C291.514 43.5254 292.682 44.0434 293.48 44.8329C293.929 45.2766 294.346 45.7867 294.699 46.3105C295.596 49.037 295.268 54.6052 294.996 57.5212C295.069 61.2059 295.06 64.893 295.05 68.5799Z" fill="#64748B"/>
</g>
<defs>
<clipPath id="clip0_557_64">
<rect width="349" height="220" fill="white"/>
</clipPath>
</defs>
</svg>
